<svg width="21" height="21" viewBox="0 0 21 21" fill="none" xmlns="http://www.w3.org/2000/svg">
<path d="M10.5622 11.6498L14.8934 7.31852C14.9742 7.23495 15.0707 7.16829 15.1775 7.12243C15.2842 7.07657 15.399 7.05243 15.5152 7.05142C15.6314 7.05042 15.7466 7.07255 15.8541 7.11655C15.9617 7.16055 16.0594 7.22552 16.1415 7.30767C16.2237 7.38983 16.2887 7.48752 16.3327 7.59506C16.3767 7.70259 16.3988 7.81781 16.3978 7.93399C16.3968 8.05018 16.3726 8.16499 16.3268 8.27175C16.2809 8.3785 16.2143 8.47505 16.1307 8.55577L11.1808 13.5056C11.0167 13.6697 10.7942 13.7618 10.5622 13.7618C10.3302 13.7618 10.1077 13.6697 9.94356 13.5056L4.99369 8.55577C4.91012 8.47505 4.84346 8.3785 4.7976 8.27175C4.75174 8.16499 4.72761 8.05018 4.7266 7.93399C4.72559 7.81781 4.74772 7.70259 4.79172 7.59506C4.83572 7.48752 4.90069 7.38983 4.98284 7.30767C5.065 7.22552 5.1627 7.16055 5.27023 7.11655C5.37776 7.07255 5.49298 7.05042 5.60917 7.05142C5.72535 7.05243 5.84017 7.07657 5.94692 7.12243C6.05367 7.16829 6.15022 7.23495 6.23094 7.31852L10.5622 11.6498Z" fill="#2C2C2E"/>
</svg>
