<svg width="24" height="24" viewBox="0 0 24 24" fill="none" xmlns="http://www.w3.org/2000/svg">
<path d="M8.00008 15.517L7.38808 14.259C7.29574 14.0682 7.14516 13.9117 6.95808 13.812L4.95808 12.752C4.75225 12.6425 4.59114 12.4646 4.50258 12.249C4.41402 12.0333 4.40359 11.7935 4.47308 11.571L5.18308 9.298C5.24366 9.10396 5.24366 8.89605 5.18308 8.702L4.47308 6.429C4.40341 6.20623 4.41386 5.96611 4.50262 5.75024C4.59138 5.53436 4.75286 5.35634 4.95908 5.247L6.95808 4.187C7.14501 4.0876 7.29557 3.93144 7.38808 3.741L8.39308 1.674C8.49972 1.4548 8.68277 1.28209 8.9078 1.18836C9.13283 1.09463 9.38435 1.08632 9.61508 1.165L11.6771 1.868C11.8865 1.93947 12.1137 1.93947 12.3231 1.868L14.3851 1.165C14.6159 1.08639 14.8675 1.09485 15.0926 1.18877C15.3176 1.28269 15.5006 1.45561 15.6071 1.675L16.6121 3.741C16.7044 3.93181 16.855 4.08834 17.0421 4.188L19.0421 5.248C19.2479 5.35746 19.409 5.53539 19.4976 5.75103C19.5861 5.96668 19.5966 6.20648 19.5271 6.429L18.8171 8.702C18.7565 8.89605 18.7565 9.10396 18.8171 9.298L19.5271 11.571C19.5967 11.7938 19.5863 12.0339 19.4975 12.2498C19.4088 12.4656 19.2473 12.6437 19.0411 12.753L17.0421 13.813C16.8551 13.9124 16.7046 14.0686 16.6121 14.259L16.0001 15.517V22.396L12.0001 21.038L8.00008 22.396V15.516V15.517ZM10.0001 16.704V19.604L12.0001 18.925L14.0001 19.605V16.704L12.3231 16.132C12.1137 16.0605 11.8865 16.0605 11.6771 16.132L10.0001 16.704ZM14.8131 13.384C15.0912 12.8119 15.544 12.343 16.1061 12.045L17.3701 11.375L16.9081 9.895C16.7259 9.31224 16.7259 8.68777 16.9081 8.105L17.3701 6.625L16.1061 5.955C15.5439 5.65679 15.091 5.18751 14.8131 4.615L14.1941 3.343L12.9681 3.761C12.3405 3.97495 11.6597 3.97495 11.0321 3.761L9.80608 3.343L9.18708 4.616C8.90895 5.18814 8.45615 5.65705 7.89408 5.955L6.63008 6.625L7.09208 8.105C7.27423 8.68777 7.27423 9.31224 7.09208 9.895L6.63008 11.375L7.89408 12.045C8.4563 12.3432 8.90912 12.8125 9.18708 13.385L9.80608 14.657L11.0321 14.239C11.6597 14.0251 12.3405 14.0251 12.9681 14.239L14.1941 14.657L14.8131 13.384ZM12.0001 6C12.2653 6 12.5196 6.10536 12.7072 6.2929C12.8947 6.48043 13.0001 6.73479 13.0001 7V11C13.0001 11.2652 12.8947 11.5196 12.7072 11.7071C12.5196 11.8946 12.2653 12 12.0001 12C11.7349 12 11.4805 11.8946 11.293 11.7071C11.1054 11.5196 11.0001 11.2652 11.0001 11V7C11.0001 6.73479 11.1054 6.48043 11.293 6.2929C11.4805 6.10536 11.7349 6 12.0001 6Z" fill="#2A91DB"/>
</svg>
